<svg width="286" height="35" viewBox="0 0 286 35" fill="none" xmlns="http://www.w3.org/2000/svg">
<path d="M0.984375 34V0.484375H6.49219L18.7969 28.4453L30.8672 0.484375H36.1406V34H32.2734V6.50781L20.3672 34H16.9453L4.85156 6.50781V34H0.984375Z" fill="black"/>
<path d="M43.6406 32.8281V28.8438C47.1562 30.0938 50.9531 30.7188 55.0312 30.7188C60.7969 30.7188 63.6797 28.6094 63.6797 24.3906C63.6797 20.7969 61.5547 19 57.3047 19H52.9922C45.9766 19 42.4688 15.9531 42.4688 9.85938C42.4688 3.45312 46.9609 0.25 55.9453 0.25C59.8516 0.25 63.4844 0.71875 66.8438 1.65625V5.64062C63.4844 4.39062 59.8516 3.76562 55.9453 3.76562C49.8516 3.76562 46.8047 5.79688 46.8047 9.85938C46.8047 13.4531 48.8672 15.25 52.9922 15.25H57.3047C64.4453 15.25 68.0156 18.2969 68.0156 24.3906C68.0156 30.9531 63.6875 34.2344 55.0312 34.2344C50.9531 34.2344 47.1562 33.7656 43.6406 32.8281Z" fill="black"/>
<path d="M77.7422 17.1484C77.7422 26.1953 81.8281 30.7188 90 30.7188C98 30.7188 102 26.1953 102 17.1484C102 8.22656 98 3.76562 90 3.76562C81.8281 3.76562 77.7422 8.22656 77.7422 17.1484ZM73.1719 17.2891C73.1719 5.92969 78.7812 0.25 90 0.25C101.047 0.25 106.57 5.92969 106.57 17.2891C106.57 28.5859 101.047 34.2344 90 34.2344C78.7812 34.2344 73.1719 28.5859 73.1719 17.2891Z" fill="black"/>
<path d="M117.727 0.484375V30.4844H135.258V34H113.391V0.484375H117.727Z" fill="black"/>
<path d="M140.203 21.0625V0.484375H144.539V21.0625C144.539 27.5 147.742 30.7188 154.148 30.7188C160.555 30.7188 163.758 27.5 163.758 21.0625V0.484375H168.094V21.0625C168.094 29.8438 163.445 34.2344 154.148 34.2344C144.852 34.2344 140.203 29.8438 140.203 21.0625Z" fill="black"/>
<path d="M198.445 0.484375V4H187.898V34H183.562V4H173.016V0.484375H198.445Z" fill="black"/>
<path d="M208.664 0.484375V34H204.328V0.484375H208.664Z" fill="black"/>
<path d="M220.758 17.1484C220.758 26.1953 224.844 30.7188 233.016 30.7188C241.016 30.7188 245.016 26.1953 245.016 17.1484C245.016 8.22656 241.016 3.76562 233.016 3.76562C224.844 3.76562 220.758 8.22656 220.758 17.1484ZM216.188 17.2891C216.188 5.92969 221.797 0.25 233.016 0.25C244.062 0.25 249.586 5.92969 249.586 17.2891C249.586 28.5859 244.062 34.2344 233.016 34.2344C221.797 34.2344 216.188 28.5859 216.188 17.2891Z" fill="black"/>
<path d="M256.406 34V0.484375H260.742L281.25 27.4844V0.484375H285.352V34H281.016L260.508 6.76562V34H256.406Z" fill="black"/>
</svg>
