<svg width="95" height="83" viewBox="0 0 95 83" fill="none" xmlns="http://www.w3.org/2000/svg">
<circle cx="33.5265" cy="35.4986" r="28.9247" fill="white"/>
<rect x="24.9805" width="16.4345" height="9.8607" fill="white"/>
<rect x="24.9805" y="59.1642" width="16.4345" height="9.8607" fill="white"/>
<rect x="67.7102" y="27.61" width="16.4345" height="9.8607" transform="rotate(90 67.7102 27.61)" fill="white"/>
<rect x="9.8606" y="27.61" width="16.4345" height="9.8607" transform="rotate(90 9.8606 27.61)" fill="white"/>
<rect x="51.9839" y="3.83313" width="16.4345" height="9.8607" transform="rotate(45 51.9839 3.83313)" fill="white"/>
<rect x="10.1484" y="45.6686" width="16.4345" height="9.8607" transform="rotate(45 10.1484 45.6686)" fill="white"/>
<rect x="62.675" y="53.5707" width="16.4345" height="9.8607" transform="rotate(135 62.675 53.5707)" fill="white"/>
<rect x="21.7695" y="12.6651" width="16.4345" height="9.8607" transform="rotate(135 21.7695 12.6651)" fill="white"/>
<circle cx="33.5264" cy="35.4985" r="21.0362" fill="#5BBCAD"/>
<path d="M33.5266 25.6378V45.3593" stroke="white" stroke-width="10"/>
<path d="M43.3872 35.4985L23.6658 35.4985" stroke="white" stroke-width="10"/>
<circle cx="75.8083" cy="63.8386" r="13.1863" transform="rotate(14.756 75.8083 63.8386)" fill="white"/>
<rect x="76.1628" y="47.1968" width="7.4922" height="4.49532" transform="rotate(14.756 76.1628 47.1968)" fill="white"/>
<rect x="69.293" y="73.2792" width="7.4922" height="4.49532" transform="rotate(14.756 69.293 73.2792)" fill="white"/>
<rect x="91.7939" y="64.3301" width="7.4922" height="4.49532" transform="rotate(104.756 91.7939 64.3301)" fill="white"/>
<rect x="66.2915" y="57.613" width="7.4922" height="4.49532" transform="rotate(104.756 66.2915 57.613)" fill="white"/>
<rect x="87.6221" y="52.0221" width="7.4922" height="4.49532" transform="rotate(59.756 87.6221 52.0221)" fill="white"/>
<rect x="64.3215" y="65.6075" width="7.4922" height="4.49532" transform="rotate(59.756 64.3215 65.6075)" fill="white"/>
<rect x="86.5598" y="75.1903" width="7.4922" height="4.49532" transform="rotate(149.756 86.5598 75.1903)" fill="white"/>
<rect x="73.2766" y="52.4073" width="7.4922" height="4.49532" transform="rotate(149.756 73.2766 52.4073)" fill="white"/>
<circle cx="75.8084" cy="63.8386" r="9.59002" transform="rotate(14.756 75.8084 63.8386)" fill="#5BBCAD"/>
</svg>
