<svg width="100" height="66" viewBox="0 0 100 66" fill="none" xmlns="http://www.w3.org/2000/svg">
<circle cx="51.4326" cy="33" r="33" fill="white"/>
<path d="M12.429 31.7629L14.4348 31.368L17.1908 32.004L19.0646 35.0021L18.4286 37.7581L17.4546 39.2238C17.4547 39.2239 17.4547 39.2239 17.4547 39.2238L17.4545 39.224L17.4536 39.2246L17.4468 39.2296L17.4158 39.2521C17.3876 39.2726 17.3449 39.3038 17.2893 39.3447C17.178 39.4266 17.0157 39.547 16.8166 39.6972C16.4171 39.9988 15.8755 40.4162 15.3034 40.8825C14.7275 41.3517 14.1419 41.8531 13.6457 42.3239C13.6061 42.3615 13.5678 42.3983 13.5306 42.4342C13.5794 42.433 13.6295 42.4315 13.6811 42.4297C14.8682 42.3878 16.452 42.1929 18.4085 41.8334C22.3083 41.1168 27.24 39.8316 32.5839 38.2377C33.5864 37.9387 34.53 37.6579 35.4232 37.392C44.1257 34.8022 48.0431 33.6364 54.943 30.9654C57.2607 30.0683 59.8669 31.2198 60.764 33.5375C61.6612 35.8552 60.5097 38.4614 58.192 39.3585C50.9725 42.1532 46.7702 43.4042 37.7926 46.0769C36.9573 46.3256 36.0806 46.5865 35.1563 46.8622C29.6878 48.4933 24.4007 49.8831 20.0349 50.6852C17.8584 51.0851 15.7978 51.3606 13.9987 51.4241C12.3626 51.4819 10.2934 51.4009 8.52967 50.5778C6.24773 49.5129 4.12964 47.6549 3.61144 44.7388C3.14346 42.1054 4.23239 39.8426 5.17464 38.4121M12.429 31.7629L5.17464 38.4121M12.429 31.7629L13.8727 33.804M12.429 31.7629L13.8727 33.804M5.17464 38.4121C6.21578 36.8315 8.15262 35.1205 9.58718 33.9442M5.17464 38.4121L9.58718 33.9442M13.8727 33.804C12.429 31.7629 12.4288 31.763 12.4286 31.7632M13.8727 33.804L12.4286 31.7632M12.4286 31.7632L12.4281 31.7636M12.4286 31.7632L12.4281 31.7636M12.4281 31.7636L12.4267 31.7645M12.4281 31.7636L12.4267 31.7645M12.4267 31.7645L12.4226 31.7675M12.4267 31.7645L12.4226 31.7675M12.4226 31.7675L12.4089 31.7772M12.4226 31.7675L12.4089 31.7772M12.4089 31.7772L12.3608 31.8115M12.4089 31.7772L12.3608 31.8115M12.3608 31.8115C12.3197 31.8409 12.261 31.8832 12.1866 31.9372M12.3608 31.8115L12.1866 31.9372M12.1866 31.9372C12.0379 32.0451 11.8262 32.2001 11.5683 32.3933M12.1866 31.9372L11.5683 32.3933M11.5683 32.3933C11.0537 32.7785 10.3483 33.3201 9.58718 33.9442M11.5683 32.3933L9.58718 33.9442" fill="white" stroke="#5BBCAD" stroke-width="5" stroke-linecap="round" stroke-linejoin="bevel"/>
<path d="M58.4812 27.8163C58.9811 26.8164 62.9812 29.3164 62.9812 29.3164L77.9812 22.3163C77.9812 22.3163 76.4813 15.8163 76.4813 11.8163C76.4813 7.81633 85.9812 19.8163 85.9812 19.8163C87.9812 18.983 93.4812 19.8164 93.9812 22.3163C94.4812 24.8163 89.6478 27.6497 87.4812 27.8163C87.4812 27.8163 85.4812 41.8163 83.4812 38.8163C81.4812 35.8163 79.9812 30.3163 79.9812 30.3163L64.4812 32.8164C64.4812 32.8164 63.4813 37.3163 62.4813 37.3163C61.4814 37.3163 57.9813 28.8163 58.4812 27.8163Z" fill="white"/>
<path fill-rule="evenodd" clip-rule="evenodd" d="M61.1292 28.2924C60.0094 27.745 58.7477 27.2832 58.4812 27.8164C58.2663 28.2463 58.7907 30.0624 59.5379 31.9934C59.604 32.1642 59.6718 32.3359 59.7411 32.5077C59.8154 32.6922 59.8914 32.8768 59.9686 33.0602C60.0212 33.1854 60.0744 33.3101 60.1279 33.434C61.0181 35.4918 62.018 37.3164 62.4813 37.3164C63.0943 37.3164 63.7072 35.6254 64.0898 34.3166C64.3314 33.4903 64.4811 32.8164 64.4811 32.8164L79.9811 30.3164C79.9811 30.3164 80.4391 31.9954 81.1862 34.004C81.3057 34.3251 81.4325 34.6546 81.566 34.987C82.109 36.3389 82.7628 37.7389 83.4812 38.8164C84.1037 39.7501 84.7262 39.0369 85.2884 37.6115C85.5996 36.8224 85.8924 35.8151 86.1564 34.7481C86.2469 34.3824 86.334 34.0097 86.4174 33.6363C87.0628 30.745 87.4812 27.8164 87.4812 27.8164C89.6478 27.6497 94.4812 24.8164 93.9812 22.3164C93.4812 19.8164 87.9812 18.983 85.9812 19.8164C85.9812 19.8164 83.9183 17.2106 81.7151 14.8323C81.4199 14.5137 81.1223 14.1992 80.8267 13.8955C80.0326 13.0798 79.2537 12.3427 78.5796 11.8163C77.3584 10.8628 76.4813 10.6009 76.4813 11.8163C76.4813 13.0584 76.6259 14.5415 76.8254 15.9963C76.8775 16.3767 76.9334 16.7551 76.9914 17.1268C77.4262 19.9113 77.9811 22.3164 77.9811 22.3164L62.9811 29.3164C62.9811 29.3164 62.1095 28.7716 61.1292 28.2924ZM63.1544 23.7179C63.1189 23.701 63.0833 23.6841 63.0476 23.6673C62.4272 23.3753 61.4551 22.9529 60.4253 22.7361C59.9387 22.6337 59.0239 22.4829 57.9613 22.6677C56.7631 22.8761 54.989 23.6199 54.0089 25.5806C53.4726 26.6534 53.4382 27.6483 53.4332 28.0204C53.4266 28.5099 53.4773 28.9465 53.5252 29.2622C53.6223 29.902 53.789 30.5546 53.9547 31.1227C54.2946 32.288 54.7869 33.6249 55.3034 34.8645C55.8171 36.0973 56.4198 37.3903 57.0152 38.4398C57.3 38.9418 57.6752 39.5531 58.1213 40.1021C58.337 40.3676 58.6981 40.7802 59.1984 41.169C59.5814 41.4665 60.751 42.3164 62.4813 42.3164C64.534 42.3164 65.8638 41.1846 66.39 40.6584C66.9802 40.0681 67.3645 39.441 67.5865 39.0413C67.9181 38.4444 68.1841 37.8059 68.3886 37.2507L76.5687 35.9314C77.2202 37.6628 78.1533 39.8384 79.3209 41.5899C79.6986 42.1563 80.415 43.057 81.6196 43.6593C83.0296 44.3643 84.6252 44.4151 86.0395 43.8651C87.2448 43.3963 88.0125 42.6156 88.4131 42.1411C88.8466 41.6278 89.1581 41.1031 89.3745 40.692C90.1644 39.1912 90.7182 37.1704 91.0931 35.6082C91.424 34.2296 91.7048 32.8096 91.9205 31.6208C92.8573 31.1775 93.8111 30.6182 94.6931 29.9696C95.6814 29.2429 96.7858 28.2534 97.6307 26.9966C98.4614 25.7608 99.3671 23.751 98.8841 21.3357C98.4071 18.9512 96.8333 17.443 95.5991 16.6098C94.3429 15.7617 92.9464 15.2595 91.7422 14.9621C90.5334 14.6637 89.2707 14.5109 88.0866 14.5041C87.1918 13.4438 86.0351 12.1136 84.8563 10.8726C83.6773 9.63162 82.1106 8.08299 80.6357 7.15142C80.233 6.89707 79.677 6.58409 79.0135 6.35128C78.4093 6.13926 77.2498 5.8262 75.8595 6.1189C74.196 6.46911 72.8911 7.5394 72.1661 8.91324C71.5601 10.0615 71.4813 11.1729 71.4813 11.8163C71.4813 14.283 71.9259 17.2735 72.3073 19.4352C72.3079 19.4387 72.3085 19.4422 72.3091 19.4456L63.1544 23.7179ZM75.2957 15.6063C75.2969 15.6071 75.2982 15.6079 75.2995 15.6087C75.2863 15.6009 75.2848 15.5994 75.2957 15.6063Z" fill="#5BBCAD"/>
</svg>
