<svg width="98" height="65" viewBox="0 0 98 65" fill="none" xmlns="http://www.w3.org/2000/svg">
<path d="M2.5 60.3402L6.48453 62.3486C6.48597 62.3507 6.48592 62.3507 6.48586 62.3507L6.48706 62.3499L6.49214 62.3462C6.50242 62.3388 6.52122 62.3252 6.54837 62.306C6.60267 62.2676 6.69032 62.2066 6.80996 62.126C7.04933 61.9649 7.41614 61.7262 7.89963 61.4357C8.86768 60.8539 10.2969 60.068 12.1016 59.2796C15.7215 57.6982 20.783 56.137 26.6303 56.137C32.4848 56.137 37.7417 57.7017 41.5677 59.2962C43.473 60.0903 45.0016 60.8826 46.0451 61.4708C46.5663 61.7645 46.9647 62.0063 47.2269 62.1706C47.3579 62.2527 47.4547 62.3153 47.5155 62.3552C47.546 62.3752 47.5674 62.3895 47.5796 62.3977L47.5884 62.4036L47.5895 62.4043C47.5895 62.4043 47.5894 62.4043 47.5899 62.4035L50.5457 62.3037C50.5463 62.3046 50.5463 62.3046 50.5462 62.3047L50.5476 62.3036L50.5489 62.3027C50.5574 62.2962 50.5739 62.2836 50.5983 62.2653C50.6471 62.2287 50.7274 62.1694 50.8383 62.0907C51.0602 61.9332 51.4039 61.6981 51.8618 61.411C52.7786 60.8362 54.1477 60.0564 55.909 59.2728C59.4354 57.704 64.4949 56.137 70.6303 56.137C76.7718 56.137 82.0278 57.7069 85.7614 59.2902C87.624 60.0801 89.0931 60.8672 90.086 61.4494C90.5819 61.7402 90.9576 61.979 91.2024 62.1403C91.3248 62.2208 91.4144 62.2819 91.4698 62.3203C91.4976 62.3395 91.5168 62.353 91.5272 62.3605L91.5324 62.3641L91.5336 62.365C91.5335 62.3649 91.5335 62.3649 91.5349 62.3628L95.5 60.3402V16.068L94.2323 13.8929L93 16.068C94.2323 13.8929 94.2319 13.8926 94.2314 13.8923L94.2301 13.8916L94.2269 13.8898L94.2171 13.8843L94.1848 13.8662C94.1713 13.8586 94.155 13.8496 94.136 13.839C94.1167 13.8283 94.0946 13.8161 94.0697 13.8024C93.971 13.7481 93.8288 13.6707 93.6463 13.5735C93.2815 13.3792 92.755 13.1054 92.0926 12.7786C90.7696 12.126 88.8957 11.2577 86.6792 10.3889C82.2966 8.67101 76.3613 6.86487 70.6303 6.86487C64.8886 6.86487 59.1305 8.67628 54.9157 10.4031C52.7856 11.2757 50.9993 12.148 49.7415 12.8042C49.4942 12.9332 49.267 13.054 49.0612 13.1651C48.8894 13.0645 48.7022 12.9567 48.5001 12.8428C47.3135 12.174 45.6068 11.2906 43.4911 10.4088C39.2751 8.65178 33.3472 6.86487 26.6303 6.86487C19.9061 6.86487 14.1525 8.65524 10.1001 10.4255C8.06866 11.3129 6.44745 12.2028 5.32411 12.8779C4.7619 13.2157 4.32278 13.5008 4.01764 13.7062C3.86503 13.8089 3.74577 13.8919 3.66124 13.9517C3.61897 13.9816 3.58536 14.0057 3.5606 14.0236L3.53009 14.0458L3.51984 14.0533L3.51597 14.0562L3.51435 14.0574C3.51363 14.0579 3.51294 14.0584 5 16.068L3.51294 14.0584L2.5 16.068V60.3402Z" fill="white" stroke="white" stroke-width="5" stroke-linecap="round" stroke-linejoin="bevel"/>
<path d="M2.5 55.9753L6.48453 57.9837C6.48597 57.9858 6.48592 57.9858 6.48586 57.9859L6.48706 57.985L6.49214 57.9813C6.50242 57.9739 6.52122 57.9604 6.54837 57.9412C6.60267 57.9028 6.69032 57.8417 6.80996 57.7611C7.04933 57.6 7.41614 57.3614 7.89963 57.0708C8.86768 56.489 10.2969 55.7031 12.1016 54.9147C15.7215 53.3334 20.783 51.7722 26.6303 51.7722C32.4848 51.7722 37.7417 53.3368 41.5677 54.9314C43.473 55.7254 45.0016 56.5178 46.0451 57.1059C46.5663 57.3996 46.9647 57.6414 47.2269 57.8057C47.3579 57.8878 47.4547 57.9504 47.5155 57.9904C47.546 58.0103 47.5674 58.0246 47.5796 58.0328L47.5884 58.0387L47.5895 58.0395C47.5895 58.0394 47.5894 58.0394 47.5899 58.0387L50.5457 57.9388C50.5463 57.9397 50.5463 57.9398 50.5462 57.9398L50.5476 57.9387L50.5489 57.9378C50.5574 57.9313 50.5739 57.9187 50.5983 57.9004C50.6471 57.8638 50.7274 57.8046 50.8383 57.7258C51.0602 57.5683 51.4039 57.3332 51.8618 57.0461C52.7786 56.4714 54.1477 55.6915 55.909 54.9079C59.4354 53.3391 64.4949 51.7722 70.6303 51.7722C76.7718 51.7722 82.0278 53.3421 85.7614 54.9254C87.624 55.7152 89.0931 56.5023 90.086 57.0846C90.5819 57.3754 90.9576 57.6142 91.2024 57.7754C91.3248 57.856 91.4144 57.9171 91.4698 57.9555C91.4976 57.9747 91.5168 57.9882 91.5272 57.9956L91.5324 57.9992L91.5336 58.0001C91.5335 58.0001 91.5335 58 91.5349 57.9979L95.5 55.9753V11.7032L94.2323 9.528L93 11.7032C94.2323 9.528 94.2319 9.52774 94.2314 9.52746L94.2301 9.52677L94.2269 9.52493L94.2171 9.51944L94.1848 9.5013C94.1713 9.49376 94.155 9.4847 94.136 9.47418C94.1167 9.46347 94.0946 9.45124 94.0697 9.43754C93.971 9.38324 93.8288 9.30584 93.6463 9.20864C93.2815 9.01432 92.755 8.74051 92.0926 8.41377C90.7696 7.7611 88.8957 6.89286 86.6792 6.02402C82.2966 4.30614 76.3613 2.5 70.6303 2.5C64.8886 2.5 59.1305 4.31142 54.9157 6.03821C52.7856 6.91087 50.9993 7.7831 49.7415 8.43931C49.4942 8.56833 49.267 8.68918 49.0612 8.80025C48.8894 8.69962 48.7022 8.59182 48.5001 8.47789C47.3135 7.80917 45.6068 6.92571 43.4911 6.04397C39.2751 4.28691 33.3472 2.5 26.6303 2.5C19.9061 2.5 14.1525 4.29037 10.1001 6.06065C8.06866 6.94805 6.44745 7.8379 5.32411 8.51299C4.7619 8.85085 4.32278 9.1359 4.01764 9.34133C3.86503 9.44407 3.74577 9.52701 3.66124 9.58679C3.61897 9.61669 3.58536 9.64081 3.5606 9.65873L3.53009 9.68093L3.51984 9.68845L3.51597 9.6913L3.51435 9.6925C3.51363 9.69303 3.51294 9.69354 5 11.7032L3.51294 9.69354L2.5 11.7032V55.9753Z" fill="#5BBCAD" stroke="white" stroke-width="5" stroke-linecap="round" stroke-linejoin="bevel"/>
<path d="M49 10.9237V56.2871" stroke="white" stroke-width="5"/>
</svg>
