<svg width="159" height="32" viewBox="0 0 159 32" fill="none" xmlns="http://www.w3.org/2000/svg">
<path d="M3.63672 29V3.86328H8.4707L16.9961 22.9355L25.3457 3.86328H30.0039V29H25.6973V11.4922L18.877 29H14.9043L7.94336 11.4922V29H3.63672Z" fill="#FFA800"/>
<path d="M43.1875 17.9258V21.6172H34.3984V17.9258H43.1875Z" fill="#FFA800"/>
<path d="M57.4258 24.957C62.6406 24.957 65.248 21.8867 65.248 15.7461C65.248 10.5195 62.6406 7.90625 57.4258 7.90625H52.2402V24.957H57.4258ZM47.582 29V3.86328H57.4258C65.7461 3.86328 69.9062 7.82422 69.9062 15.7461C69.9062 24.582 65.7461 29 57.4258 29H47.582Z" fill="#FFA800"/>
<path d="M78.5371 3.86328V29H73.8789V3.86328H78.5371Z" fill="#FFA800"/>
<path d="M86.4121 29H81.6309L92.3008 3.86328H97.3105L108.209 29H103.199L100.334 22.1445H91.9844L93.584 18.1016H98.6465L94.6914 8.66211L86.4121 29Z" fill="#FFA800"/>
<path d="M111.285 28.9648V3.86328H122.711C127.844 3.86328 130.41 6.10742 130.41 10.5957C130.41 13.6309 128.412 16.1445 124.416 18.1367L132.379 29H126.508L118.861 18.0488V15.9219C123.314 15.1602 125.541 13.4316 125.541 10.7363C125.541 8.88477 124.498 7.95898 122.412 7.95898H116.031V28.9648H111.285Z" fill="#FFA800"/>
<path d="M132.396 3.86328H137.406L144.473 15.9746L151.117 3.86328H155.951L146.705 20.2109V29H142.047V20.2109L132.396 3.86328Z" fill="#FFA800"/>
<path fill-rule="evenodd" clip-rule="evenodd" d="M3.63672 32C1.97986 32 0.636719 30.6569 0.636719 29V3.86328C0.636719 2.20643 1.97986 0.863281 3.63672 0.863281H8.4707C9.65395 0.863281 10.7267 1.55878 11.2095 2.63901L16.9675 15.5203L22.5975 2.66016C23.0754 1.56855 24.1541 0.863281 25.3457 0.863281H30.0039C31.6608 0.863281 33.0039 2.20643 33.0039 3.86328V15.2689C33.4205 15.0498 33.895 14.9258 34.3984 14.9258H43.1875C43.6909 14.9258 44.1654 15.0498 44.582 15.2689V3.86328C44.582 2.20643 45.9252 0.863281 47.582 0.863281H57.4258C62.0126 0.863281 66.0098 1.95256 68.8548 4.66128C69.6582 5.42625 70.3292 6.28141 70.8789 7.21412V3.86328C70.8789 2.20643 72.2221 0.863281 73.8789 0.863281H78.5371C80.194 0.863281 81.5371 2.20643 81.5371 3.86328V21.543L89.5393 2.69109C90.0097 1.58292 91.0969 0.863281 92.3008 0.863281H97.3105C98.506 0.863281 99.5874 1.57308 100.063 2.66992L108.285 21.634V3.86328C108.285 2.20643 109.628 0.863281 111.285 0.863281H122.711C125.276 0.863281 127.708 1.34629 129.648 2.66151C129.69 2.56445 129.738 2.46909 129.791 2.37587C130.325 1.44058 131.32 0.863281 132.396 0.863281H137.406C138.473 0.863281 139.46 1.42991 139.997 2.35143L144.392 9.88393L148.487 2.42031C149.014 1.46011 150.022 0.863281 151.117 0.863281H155.951C157.018 0.863281 158.005 1.43006 158.543 2.35178C159.08 3.2735 159.088 4.41141 158.562 5.34019L149.705 21.0005V29C149.705 30.6569 148.362 32 146.705 32H142.047C140.39 32 139.047 30.6569 139.047 29V21.0304L133.376 11.424C133.114 14.5653 131.364 17.0602 128.765 18.9948L134.798 27.2264C135.467 28.1381 135.566 29.3481 135.055 30.3563C134.544 31.3646 133.509 32 132.379 32H126.508C125.528 32 124.609 31.5211 124.048 30.7175L119.031 23.5324V28.9648C119.031 30.6217 117.688 31.9648 116.031 31.9648H111.285C110.735 31.9648 110.219 31.8167 109.776 31.5582C109.311 31.8428 108.771 32 108.209 32H103.199C101.989 32 100.898 31.2732 100.431 30.1569L98.3363 25.1445H91.9844C91.7363 25.1445 91.4923 25.1139 91.2571 25.0551L89.1907 30.1311C88.7307 31.2611 87.6322 32 86.4121 32H81.6309C81.0776 32 80.5445 31.8475 80.0844 31.5707C79.6326 31.8432 79.1032 32 78.5371 32H73.8789C72.2221 32 70.8789 30.6569 70.8789 29V25.0914C70.3563 26.0557 69.7235 26.9432 68.9702 27.7432C66.1375 30.7514 62.096 32 57.4258 32H47.582C45.9252 32 44.582 30.6569 44.582 29V24.2741C44.1654 24.4932 43.6909 24.6172 43.1875 24.6172H34.3984C33.895 24.6172 33.4205 24.4932 33.0039 24.2741V29C33.0039 30.6569 31.6608 32 30.0039 32H25.6973C24.0404 32 22.6973 30.6569 22.6973 29V27.458L21.6723 30.089C21.2235 31.2412 20.1136 32 18.877 32H14.9043C13.6753 32 12.5706 31.2504 12.1166 30.1084L10.9434 27.1576V29C10.9434 30.6569 9.60021 32 7.94336 32H3.63672ZM7.94336 11.4922L14.9043 29H18.877L25.6973 11.4922V29H30.0039V3.86328H25.3457L16.9961 22.9355L8.4707 3.86328H3.63672V29H7.94336V11.4922ZM94.6914 8.66211L98.6465 18.1016H93.584L91.9844 22.1445H100.334L103.199 29H108.209L97.3105 3.86328H92.3008L81.6309 29H86.4121L94.6914 8.66211ZM116.031 7.95898H122.412C124.498 7.95898 125.541 8.88477 125.541 10.7363C125.541 13.3971 123.371 15.1157 119.031 15.8921C118.975 15.9022 118.918 15.9121 118.861 15.9219V18.0488L126.508 29H132.379L124.416 18.1367C125.395 17.6486 126.254 17.1292 126.993 16.5785C129.271 14.8815 130.41 12.8872 130.41 10.5957C130.41 6.10742 127.844 3.86328 122.711 3.86328H111.285V28.9648H116.031V7.95898ZM119.031 12.8365C120.615 12.5034 121.541 12.0656 122.031 11.6845C122.362 11.4281 122.488 11.2192 122.526 10.9607C122.491 10.9596 122.453 10.959 122.412 10.959H119.031V12.8365ZM142.047 20.2109V29H146.705V20.2109L155.951 3.86328H151.117L144.473 15.9746L137.406 3.86328H132.396L142.047 20.2109ZM61.0058 20.7124C61.6609 19.941 62.248 18.4629 62.248 15.7461C62.248 13.5936 61.7129 12.5305 61.1688 11.9851C60.6259 11.441 59.5691 10.9062 57.4258 10.9062H55.2402V21.957H57.4258C59.4308 21.957 60.4304 21.3899 61.0058 20.7124ZM52.2402 24.957V7.90625H57.4258C62.6406 7.90625 65.248 10.5195 65.248 15.7461C65.248 21.8867 62.6406 24.957 57.4258 24.957H52.2402ZM43.1875 17.9258H34.3984V21.6172H43.1875V17.9258ZM47.582 29H57.4258C65.7461 29 69.9062 24.582 69.9062 15.7461C69.9062 7.82422 65.7461 3.86328 57.4258 3.86328H47.582V29ZM78.5371 3.86328H73.8789V29H78.5371V3.86328Z" fill="white"/>
</svg>
