<svg width="137" height="32" viewBox="0 0 137 32" fill="none" xmlns="http://www.w3.org/2000/svg">
<path d="M3.63672 29V3.86328H8.4707L16.9961 22.9355L25.3457 3.86328H30.0039V29H25.6973V11.4922L18.877 29H14.9043L7.94336 11.4922V29H3.63672Z" fill="#FFA800"/>
<path d="M43.1875 17.9258V21.6172H34.3984V17.9258H43.1875Z" fill="#FFA800"/>
<path d="M47.582 29V3.86328H52.2402L65.5117 22.1797V3.86328H69.9941V29H65.3359L52.0645 10.2969V29H47.582Z" fill="#FFA800"/>
<path d="M77.8691 29H73.0879L83.7578 3.86328H88.7676L99.666 29H94.6562L91.791 22.1445H83.4414L85.041 18.1016H90.1035L86.1484 8.66211L77.8691 29Z" fill="#FFA800"/>
<path d="M126.684 3.86328L115.662 29H110.652L100.105 3.86328H105.643L113.43 23.1113L121.199 3.86328H126.684Z" fill="#FFA800"/>
<path d="M133.979 3.86328V29H129.32V3.86328H133.979Z" fill="#FFA800"/>
<path fill-rule="evenodd" clip-rule="evenodd" d="M3.63672 32C1.97986 32 0.636719 30.6569 0.636719 29V3.86328C0.636719 2.20643 1.97986 0.863281 3.63672 0.863281H8.4707C9.65395 0.863281 10.7267 1.55878 11.2095 2.63901L16.9675 15.5203L22.5975 2.66016C23.0754 1.56855 24.1541 0.863281 25.3457 0.863281H30.0039C31.6608 0.863281 33.0039 2.20643 33.0039 3.86328V15.2689C33.4205 15.0498 33.895 14.9258 34.3984 14.9258H43.1875C43.6909 14.9258 44.1654 15.0498 44.582 15.2689V3.86328C44.582 2.20643 45.9252 0.863281 47.582 0.863281H52.2402C53.2019 0.863281 54.1053 1.32432 54.6696 2.10307L62.5117 12.9263V3.86328C62.5117 2.20643 63.8549 0.863281 65.5117 0.863281H69.9941C71.651 0.863281 72.9941 2.20643 72.9941 3.86328V21.543L80.9963 2.69109C81.4667 1.58292 82.5539 0.863281 83.7578 0.863281H88.7676C89.9631 0.863281 91.0445 1.57308 91.52 2.66992L102.418 27.8066C102.82 28.7339 102.729 29.8013 102.174 30.6462C101.619 31.4911 100.677 32 99.666 32H94.6562C93.4463 32 92.3549 31.2732 91.8883 30.1569L89.7934 25.1445H83.4414C83.1934 25.1445 82.9494 25.1139 82.7141 25.0551L80.6477 30.1311C80.1877 31.2611 79.0892 32 77.8691 32H73.0879C72.5346 32 72.0016 31.8475 71.5415 31.5707C71.0897 31.8432 70.5602 32 69.9941 32H65.3359C64.3638 32 63.4519 31.5289 62.8893 30.7361L55.0645 19.7087V29C55.0645 30.6569 53.7213 32 52.0645 32H47.582C45.9252 32 44.582 30.6569 44.582 29V24.2741C44.1654 24.4932 43.6909 24.6172 43.1875 24.6172H34.3984C33.895 24.6172 33.4205 24.4932 33.0039 24.2741V29C33.0039 30.6569 31.6608 32 30.0039 32H25.6973C24.0404 32 22.6973 30.6569 22.6973 29V27.458L21.6723 30.089C21.2235 31.2412 20.1136 32 18.877 32H14.9043C13.6753 32 12.5706 31.2504 12.1166 30.1084L10.9434 27.1576V29C10.9434 30.6569 9.60021 32 7.94336 32H3.63672ZM7.94336 11.4922L14.9043 29H18.877L25.6973 11.4922V29H30.0039V3.86328H25.3457L16.9961 22.9355L8.4707 3.86328H3.63672V29H7.94336V11.4922ZM52.0645 10.2969L65.3359 29H69.9941V3.86328H65.5117V22.1797L52.2402 3.86328H47.582V29H52.0645V10.2969ZM86.1484 8.66211L90.1035 18.1016H85.041L83.4414 22.1445H91.791L94.6562 29H99.666L88.7676 3.86328H83.7578L73.0879 29H77.8691L86.1484 8.66211ZM126.32 12.1627L118.41 30.2047C117.931 31.2954 116.853 32 115.662 32H110.652C109.444 32 108.354 31.275 107.886 30.1607L97.3391 5.02399C96.9505 4.09784 97.0512 3.03866 97.6073 2.20228C98.1633 1.36589 99.1011 0.863281 100.105 0.863281H105.643C106.865 0.863281 107.965 1.60498 108.424 2.73817L113.427 15.1043L118.417 2.74035C118.875 1.60601 119.976 0.863281 121.199 0.863281H126.684C127.147 0.863281 127.597 0.97047 128.001 1.16811C128.399 0.97289 128.847 0.863281 129.32 0.863281H133.979C135.635 0.863281 136.979 2.20643 136.979 3.86328V29C136.979 30.6569 135.635 32 133.979 32H129.32C127.663 32 126.32 30.6569 126.32 29V12.1627ZM126.684 3.86328H121.199L113.43 23.1113L105.643 3.86328H100.105L110.652 29H115.662L126.684 3.86328ZM43.1875 17.9258H34.3984V21.6172H43.1875V17.9258ZM133.979 3.86328H129.32V29H133.979V3.86328Z" fill="white"/>
</svg>
