<svg width="179" height="34" viewBox="0 0 179 34" fill="none" xmlns="http://www.w3.org/2000/svg">
<path d="M5.72986 7.21004C8.33986 8.11004 11.0099 9.52004 13.7399 11.35L15.6599 8.05005C13.1399 6.52005 10.7699 5.38005 7.67986 4.18005L5.72986 7.21004ZM3.35986 14.5C6.41986 15.7 9.08986 17.14 11.4899 18.91L13.3499 15.52C10.7699 13.84 8.45986 12.67 5.36986 11.44L3.35986 14.5ZM5.06986 28.96C5.66986 28.78 6.08986 28.69 7.16986 28.48C14.5499 27.01 19.6499 24.34 23.4599 19.96C25.3199 17.77 26.5799 15.7 27.9599 12.37C26.5199 11.38 26.0699 10.99 24.8399 9.70005C23.9099 12.37 22.9799 14.17 21.3599 16.33C18.9599 19.54 16.4099 21.49 12.6899 22.93C9.56986 24.13 6.29986 24.85 4.01986 24.88L5.06986 28.96Z" fill="#FFA800"/>
<path d="M56.4957 25.87C52.8657 22.36 52.8657 22.36 52.1157 21.7C50.0757 19.87 48.4557 18.61 46.5657 17.35C48.3957 14.89 49.8657 12.28 51.2457 9.07004C51.5757 8.32005 51.8157 7.90005 52.2057 7.45004L50.2257 5.41005C49.4757 5.68005 49.2357 5.71004 47.5557 5.74004L36.9957 5.89004C36.6357 5.89004 36.3957 5.89004 36.2757 5.89004C35.0457 5.89004 34.4757 5.86004 33.6357 5.71004L33.7557 9.55005C34.7757 9.40005 35.5857 9.34004 37.0257 9.31005C46.4757 9.16005 46.4757 9.16005 46.9557 9.13005L46.6257 9.91004C44.6757 14.59 41.0757 18.94 36.5457 22.12C34.2957 23.71 32.8557 24.52 30.5457 25.42C31.7757 26.71 32.1357 27.19 32.9757 28.75C37.5657 26.5 41.0157 23.86 44.4057 20.08C47.6757 22.57 51.1257 25.93 53.6157 28.99L56.4957 25.87Z" fill="#FFA800"/>
<path d="M82.3257 15.76C84.3657 15.76 85.0557 15.79 86.1357 15.91V12.34C84.9957 12.52 84.3057 12.55 82.2657 12.55H64.7157C62.6457 12.55 61.9857 12.52 60.8457 12.34V15.91C61.9257 15.79 62.6157 15.76 64.6557 15.76H71.9757C71.8857 18.1 71.4357 20.05 70.6557 21.43C69.3957 23.74 67.1457 25.33 63.5457 26.44C64.8357 27.7 65.2257 28.21 65.9757 29.74C70.0257 28.12 72.2157 26.47 73.8057 23.83C75.0957 21.7 75.7557 19.21 75.9057 15.76H82.3257ZM63.8757 8.44005C64.8657 8.32005 65.5857 8.29005 67.6857 8.29005H79.3257C81.4257 8.29005 82.1457 8.32005 83.1357 8.44005V4.78004C82.0257 4.96005 81.4257 4.99005 79.2657 4.99005H67.7457C65.5857 4.99005 64.9857 4.96005 63.8757 4.78004V8.44005Z" fill="#FFA800"/>
<path d="M98.4486 3.67004C98.2386 5.44004 97.6686 7.57004 96.2586 11.98C94.6986 16.9 93.4986 20.29 91.9086 24.07C90.6486 24.13 89.9286 24.16 89.3286 24.16C88.9686 24.16 88.9686 24.16 88.5486 24.16L89.0886 28.21C89.6886 28.06 90.1386 28 91.8186 27.85C100.789 26.98 105.769 26.35 108.799 25.72C109.489 25.57 109.489 25.57 109.879 25.48C110.929 27.97 110.929 27.97 111.319 29.2L114.949 27.31C113.119 22.54 110.479 17.5 107.689 13.42L104.299 14.74C105.289 16.15 105.829 17.02 107.149 19.51C107.869 20.86 108.229 21.52 108.559 22.24C105.979 22.78 100.789 23.41 96.0786 23.77C97.9986 19.15 99.7386 14.17 102.019 6.67004C102.439 5.23004 102.469 5.17004 102.799 4.51004L98.4486 3.67004Z" fill="#FFA800"/>
<path fill-rule="evenodd" clip-rule="evenodd" d="M2.89512 8.19198C2.59365 7.32164 2.70869 6.36106 3.20715 5.58653L5.15715 2.55653C5.92861 1.3578 7.43708 0.86749 8.76591 1.38354C11.9912 2.63608 14.5231 3.85026 17.2168 5.4857C18.6144 6.33421 19.0751 8.14555 18.2529 9.55874L16.3329 12.8587C16.1604 13.1553 15.9403 13.4168 15.6842 13.6347C16.4298 14.5578 16.5794 15.8706 15.98 16.9631L15.3 18.2025C16.6494 17.2484 17.8075 16.0713 18.9572 14.5337L18.9599 14.5301C20.3771 12.6405 21.1684 11.1203 22.0068 8.71327C22.3506 7.72615 23.1835 6.98917 24.2051 6.76799C25.2267 6.54681 26.2898 6.87333 27.0111 7.62984C28.1063 8.77845 28.3995 9.03174 29.6595 9.89794C30.8267 10.7004 31.2736 12.21 30.7313 13.5186C29.2493 17.0949 27.8357 19.4422 25.7465 21.9021L25.7234 21.929C21.3638 26.9407 15.5944 29.8609 7.75593 31.4223L7.74249 31.4249C6.66948 31.6336 6.377 31.7 5.93192 31.8335C5.15011 32.0681 4.30648 31.9739 3.5956 31.5728C2.88472 31.1717 2.36798 30.4982 2.16455 29.7078L1.11455 25.6278C0.885124 24.7363 1.07767 23.7888 1.63686 23.0576C2.19605 22.3264 3.05997 21.8924 3.98041 21.8803C5.28568 21.8631 7.15701 21.5442 9.18858 20.9495C7.15668 19.5207 4.88606 18.321 2.26462 17.293C1.42295 16.9629 0.775021 16.2709 0.501 15.4094C0.226979 14.5478 0.356093 13.6086 0.852439 12.853L2.86244 9.79302C3.02521 9.54521 3.21959 9.32834 3.43728 9.14502C3.20238 8.86673 3.01729 8.54468 2.89512 8.19198ZM12.6899 22.9301C10.7726 23.6675 8.79866 24.2236 7.03264 24.5498C5.92481 24.7544 4.89878 24.8685 4.01988 24.8801L5.06988 28.9601C5.41219 28.8574 5.69591 28.784 6.07703 28.7009C6.36394 28.6383 6.70604 28.5703 7.16988 28.4801C14.5499 27.0101 19.6499 24.3401 23.4599 19.9601C25.3199 17.7701 26.5799 15.7001 27.9599 12.3701C27.6894 12.1841 27.4539 12.0193 27.2415 11.8658C26.3233 11.2018 25.8388 10.7478 24.8399 9.70006C24.4453 10.8329 24.0507 11.809 23.6035 12.7226C22.9965 13.9622 22.2926 15.0865 21.3599 16.3301C18.9599 19.5401 16.4099 21.4901 12.6899 22.9301ZM58.5811 23.7134C59.7527 24.8463 59.8056 26.7073 58.7001 27.9049L55.8201 31.0249C55.2301 31.6641 54.3917 32.0157 53.5222 31.9886C52.6527 31.9615 51.8378 31.5583 51.2888 30.8836C49.4701 28.6486 47.0857 26.2226 44.6685 24.1518C41.616 27.1577 38.3559 29.4538 34.2962 31.4438C32.8485 32.1535 31.0987 31.592 30.3343 30.1724C29.9323 29.4258 29.7105 29.062 29.4866 28.7563C29.2591 28.4456 28.9747 28.1198 28.3745 27.4903C27.6841 26.7662 27.4001 25.7455 27.6173 24.7688C27.8345 23.7921 28.5244 22.988 29.4566 22.6247C31.4987 21.8291 32.7246 21.1469 34.8144 19.6701L34.8221 19.6646C37.7522 17.6077 40.2246 15.0285 42.0227 12.231C40.9732 12.2478 39.6882 12.2682 38.1096 12.2932L37.0882 12.3094C37.0858 12.3095 37.0833 12.3095 37.0809 12.3096C35.7276 12.3379 35.0502 12.392 34.1922 12.5181C33.3458 12.6426 32.4866 12.3998 31.8305 11.8508C31.1744 11.3018 30.7839 10.4988 30.7572 9.64376L30.6372 5.80376C30.609 4.89988 30.99 4.03149 31.6742 3.44019C32.3584 2.8489 33.2729 2.59781 34.1631 2.75678C34.7498 2.86155 35.1181 2.89006 36.2757 2.89006H36.9769L47.5022 2.74054C47.504 2.74051 47.5058 2.74047 47.5076 2.74044C48.3857 2.72472 48.6956 2.70948 48.8712 2.68776C48.8758 2.68719 48.88 2.68673 48.8842 2.68629C48.9235 2.68209 48.9563 2.67858 49.2096 2.5874C50.3182 2.18829 51.5578 2.47512 52.3785 3.32064L54.3585 5.36063C55.4427 6.47769 55.4923 8.23846 54.4728 9.41485C54.357 9.54842 54.2607 9.66797 53.9964 10.2675C52.989 12.6094 51.9225 14.6787 50.703 16.6161C51.7936 17.4488 52.8852 18.3605 54.1082 19.4573C54.9014 20.1553 54.9906 20.2415 58.4046 23.5427L58.5811 23.7134ZM52.1157 21.7001C52.8657 22.36 52.8657 22.3601 56.4954 25.8698L53.6157 28.9901C53.0076 28.2428 52.3423 27.4776 51.6363 26.7115C49.4514 24.3408 46.8772 21.962 44.4057 20.0801C41.0157 23.8601 37.5657 26.5001 32.9757 28.7501C32.7945 28.4135 32.6356 28.1272 32.4855 27.8722C31.9399 26.9452 31.5104 26.4317 30.5457 25.4201C31.6406 24.9935 32.5401 24.5871 33.423 24.1083C34.4028 23.577 35.3622 22.9564 36.5457 22.1201C40.3362 19.4592 43.4755 15.9792 45.5419 12.1721C45.9451 11.4293 46.3074 10.6741 46.6257 9.91006L46.9557 9.13006L46.8882 9.13423C46.6571 9.14816 46.4256 9.15663 44.9072 9.18298C44.8988 9.18313 44.8903 9.18327 44.8818 9.18342C44.5434 9.18928 44.142 9.19602 43.6637 9.20389C42.2464 9.22719 40.1539 9.26041 37.0261 9.31006C36.9315 9.31203 36.8393 9.31413 36.7499 9.31638C35.4784 9.34833 34.7087 9.40991 33.7557 9.55006L33.6357 5.71006C34.4757 5.86006 35.0457 5.89006 36.2757 5.89006H36.9957L47.5557 5.74006C48.9789 5.71465 49.3687 5.68924 49.9105 5.51794C49.9264 5.51292 49.9424 5.50778 49.9585 5.5025C50.042 5.47529 50.1297 5.44465 50.2257 5.41006L52.2057 7.45006C51.8157 7.90006 51.5757 8.32006 51.2457 9.07006C50.3173 11.2297 49.3481 13.1178 48.2559 14.8713C47.7248 15.7241 47.1645 16.5451 46.5657 17.3501C47.4128 17.9148 48.2056 18.4795 49.0063 19.0955C49.9922 19.854 50.99 20.6902 52.1157 21.7001ZM88.1365 18.1454C87.5007 18.7145 86.6526 18.9859 85.8045 18.8917C84.8871 18.7898 84.3251 18.7601 82.3257 18.7601H78.6431C78.2816 21.259 77.5664 23.4103 76.3745 25.3797C74.3315 28.7709 71.4985 30.7621 67.0899 32.5255C65.6328 33.1083 63.9727 32.4697 63.282 31.0605C62.9354 30.3535 62.7439 30.0331 62.5519 29.7736C62.3499 29.5007 62.0748 29.1969 61.4495 28.5862C60.6926 27.8468 60.3811 26.7634 60.6298 25.7349C60.8785 24.7064 61.6506 23.885 62.6618 23.5732C65.8332 22.5954 67.2706 21.3711 68.022 19.9935C68.0293 19.9802 68.0366 19.967 68.0441 19.9539C68.2182 19.6459 68.3836 19.2488 68.5261 18.7601H64.6557C62.6564 18.7601 62.0944 18.7898 61.177 18.8917C60.3289 18.9859 59.4808 18.7145 58.845 18.1454C58.2091 17.5763 57.8457 16.7634 57.8457 15.9101V12.3401C57.8457 11.4627 58.2298 10.6293 58.8968 10.0593C59.4874 9.55465 60.2474 9.3013 61.0154 9.34485C60.9238 9.05513 60.8757 8.75028 60.8757 8.44006V4.78006C60.8757 3.9005 61.2617 3.06525 61.9316 2.49526C62.6015 1.92526 63.4877 1.67795 64.356 1.81875C65.2188 1.95867 65.6215 1.99006 67.7457 1.99006H79.2657C81.39 1.99006 81.7926 1.95867 82.6555 1.81875C83.5237 1.67795 84.41 1.92526 85.0799 2.49526C85.7498 3.06525 86.1357 3.9005 86.1357 4.78006V8.44006C86.1357 8.74972 86.0879 9.05403 85.9966 9.34328C86.7541 9.30805 87.5019 9.56133 88.0846 10.0593C88.7517 10.6293 89.1357 11.4627 89.1357 12.3401V15.9101C89.1357 16.7634 88.7723 17.5763 88.1365 18.1454ZM71.9757 15.7601C71.9338 16.8509 71.8136 17.857 71.6182 18.7601C71.3945 19.7942 71.0721 20.6934 70.6557 21.4301C69.7941 23.0097 68.4696 24.2526 66.5671 25.2356C65.6873 25.6901 64.684 26.0891 63.5457 26.4401C64.5778 27.4481 65.0338 27.9761 65.5589 28.9304C65.6902 29.1689 65.8257 29.4341 65.9757 29.7401C70.0257 28.1201 72.2157 26.4701 73.8057 23.8301C75.0957 21.7001 75.7557 19.2101 75.9057 15.7601H82.3257C82.6225 15.7601 82.8907 15.7607 83.1357 15.7622C84.5748 15.7707 85.2129 15.8075 86.1357 15.9101V12.3401C85.1752 12.4917 84.5341 12.5369 83.1357 12.5474C82.8745 12.5493 82.5868 12.5501 82.2657 12.5501H64.7157C64.3941 12.5501 64.1064 12.5493 63.8457 12.5474C62.429 12.5371 61.8086 12.4921 60.8457 12.3401V15.9101C61.7686 15.8075 62.4067 15.7707 63.8457 15.7622C64.0907 15.7607 64.359 15.7601 64.6557 15.7601H71.9757ZM96.6788 1.2477C97.3518 0.756 98.1991 0.566447 99.0174 0.724477L103.367 1.56448C104.289 1.74242 105.074 2.34135 105.489 3.18306C105.904 4.02478 105.902 5.01226 105.482 5.8517C105.312 6.19125 105.296 6.22957 105.261 6.32585C105.201 6.49026 105.118 6.75902 104.899 7.51006L104.889 7.54263C104.428 9.0576 103.989 10.4731 103.565 11.8064L106.6 10.6245C107.9 10.1183 109.378 10.5751 110.165 11.7267C113.09 16.0035 115.838 21.2518 117.75 26.2355C118.296 27.6594 117.687 29.2667 116.334 29.971L112.704 31.861C111.918 32.2701 110.992 32.311 110.173 31.9727C109.354 31.6343 108.727 30.9513 108.459 30.1068L108.416 29.9703C108.275 29.5253 108.199 29.2872 108.057 28.9167C104.798 29.496 99.8968 30.0806 92.1082 30.8361L92.0854 30.8382C90.3856 30.9899 90.1577 31.0351 89.8162 31.1205C88.9875 31.3277 88.1097 31.1717 87.4031 30.6918C86.6964 30.2118 86.2279 29.4533 86.1149 28.6066L85.5749 24.5566C85.4607 23.6994 85.7218 22.8345 86.2915 22.1839C86.8611 21.5332 87.6838 21.1601 88.5486 21.1601H89.3286C89.4894 21.1601 89.6628 21.1575 89.8641 21.1522C91.0732 18.1339 92.1045 15.1559 93.3989 11.0733L93.4011 11.0664C94.8202 6.62809 95.2983 4.75969 95.4695 3.31661C95.5677 2.48892 96.0058 1.7394 96.6788 1.2477ZM91.7274 27.8582C90.1221 28.0023 89.6776 28.0628 89.0886 28.2101L88.5486 24.1601H89.3286C89.8719 24.1601 90.5135 24.1355 91.5653 24.0863C91.6752 24.0811 91.7895 24.0757 91.9086 24.0701C93.4986 20.2901 94.6986 16.9001 96.2586 11.9801C97.0617 9.46843 97.5922 7.69635 97.939 6.30913C98.2011 5.26063 98.3582 4.43199 98.4486 3.67006L102.799 4.51006C102.469 5.17006 102.439 5.23006 102.019 6.67006C101.947 6.90701 101.875 7.14145 101.804 7.37344C100.121 12.8755 98.7278 17.0011 97.3223 20.6588C96.9113 21.7283 96.4993 22.7578 96.0786 23.7701C97.1856 23.6855 98.3191 23.5859 99.439 23.4762C101.598 23.2646 103.706 23.015 105.476 22.7608C106.695 22.5858 107.754 22.4085 108.559 22.2401C108.269 21.6072 107.955 21.0206 107.395 19.9711L107.149 19.5101C107.14 19.4939 107.132 19.4779 107.123 19.4619C106.651 18.5718 106.279 17.8904 105.95 17.3165C105.372 16.3088 104.925 15.6326 104.299 14.7401L107.689 13.4201C110.479 17.5001 113.119 22.5401 114.949 27.3101L111.319 29.2001C110.982 28.1385 110.936 27.993 110.254 26.3719C110.146 26.1149 110.022 25.8208 109.879 25.4801L109.723 25.5159C109.661 25.5301 109.609 25.542 109.557 25.5538C109.398 25.5897 109.239 25.6243 108.799 25.72C105.769 26.35 100.789 26.9801 91.8186 27.8501C91.7878 27.8528 91.7574 27.8555 91.7274 27.8582ZM103.976 19.9393C103.119 18.359 102.662 17.637 101.969 16.6435C101.523 17.9425 101.086 19.1649 100.651 20.3358C101.82 20.2101 102.945 20.0758 103.976 19.9393ZM11.1951 9.75848C12.0375 10.2461 12.8857 10.7775 13.7399 11.3501L15.6599 8.05006C15.1354 7.73162 14.6174 7.43007 14.098 7.14136C13.7491 6.94737 13.3995 6.75917 13.047 6.57554C11.4033 5.7194 9.69461 4.96248 7.67988 4.18006L5.72988 7.21006C6.66319 7.53189 7.60417 7.91894 8.55283 8.36708C9.42706 8.78007 10.3078 9.24494 11.1951 9.75848ZM8.98429 17.24C9.85274 17.762 10.6864 18.3175 11.4899 18.9101L13.3499 15.5201C10.7699 13.8401 8.45988 12.6701 5.36988 11.4401L3.35988 14.5001C4.32825 14.8798 5.25756 15.2836 6.15162 15.7143C7.13697 16.1889 8.07949 16.6962 8.98429 17.24ZM66.8757 4.98766C67.1356 4.98939 67.4233 4.99006 67.7457 4.99006H79.2657C79.5882 4.99006 79.8759 4.98939 80.1357 4.98766C81.6163 4.97776 82.1915 4.93319 83.1357 4.78006V8.44006C82.2852 8.33697 81.634 8.3003 80.1357 8.29202C79.8901 8.29066 79.6216 8.29006 79.3257 8.29006H67.6857C67.3899 8.29006 67.1214 8.29066 66.8757 8.29202C65.3775 8.3003 64.7263 8.33697 63.8757 8.44006V4.78006C64.82 4.93319 65.3952 4.97776 66.8757 4.98766Z" fill="white"/>
<path d="M127.009 20.08C125.479 20.08 124.729 20.05 123.889 19.96V22.72C124.669 22.6 125.509 22.57 127.069 22.57C126.709 25 125.869 26.35 123.859 27.91C124.879 28.63 125.479 29.14 126.259 29.98C128.569 27.73 129.559 25.75 129.889 22.57H133.249V26.98C133.249 28.3 133.219 28.84 133.099 29.56H136.249C136.129 28.9 136.099 28.39 136.099 27.01V22.57H136.549C137.989 22.57 138.739 22.6 139.639 22.72V19.96C138.799 20.05 138.049 20.08 136.549 20.08H136.099V17.32C137.599 17.32 138.409 17.35 139.219 17.44V14.74C138.379 14.86 137.569 14.89 136.099 14.89H127.399C125.989 14.89 125.179 14.86 124.369 14.74V17.44C125.179 17.35 125.989 17.32 127.369 17.32C127.369 18.7 127.369 19.03 127.309 20.08H127.009ZM133.249 17.32V20.08H130.099C130.159 18.67 130.159 18.67 130.159 17.32H133.249ZM122.299 13.48H127.879C128.929 13.48 129.859 13.51 130.639 13.57C130.579 12.79 130.549 12.22 130.549 10.87V6.25002C130.549 5.20002 130.579 4.33002 130.639 3.46002C129.829 3.55002 129.139 3.58002 127.579 3.58002H122.119C120.649 3.58002 119.869 3.55002 119.029 3.46002C119.119 4.42002 119.149 5.26002 119.149 6.82002V26.62C119.149 28.48 119.089 29.47 118.969 30.34H122.479C122.359 29.47 122.299 28.45 122.299 26.68V13.48ZM122.299 5.83002H127.609V7.42002H122.299V5.83002ZM122.299 9.55002H127.609V11.17H122.299V9.55002ZM144.379 6.79002C144.379 5.29002 144.409 4.57002 144.499 3.46002C143.659 3.55002 142.909 3.58002 141.409 3.58002H135.679C134.149 3.58002 133.459 3.55002 132.619 3.46002C132.679 4.33002 132.709 5.11002 132.709 6.25002V10.87C132.709 12.22 132.709 12.7 132.649 13.57C133.369 13.51 134.329 13.48 135.379 13.48H141.259V26.23C141.259 26.89 141.079 27.01 140.119 27.01C139.399 27.01 138.439 26.92 137.359 26.77C137.839 27.94 137.989 28.6 138.169 29.95C139.159 30.01 139.579 30.01 140.119 30.01C143.479 30.01 144.379 29.32 144.379 26.65V6.79002ZM135.679 5.83002H141.259V7.42002H135.679V5.83002ZM135.679 9.55002H141.259V11.17H135.679V9.55002Z" fill="#FFA800"/>
<path d="M156.559 17.86C156.559 18.19 156.559 18.4 156.529 18.79H152.239C150.769 18.79 150.019 18.76 149.089 18.61V21.82C150.079 21.67 150.859 21.64 152.239 21.64H156.079C155.629 23.08 154.999 24.04 153.949 24.97C152.629 26.17 151.189 26.86 148.399 27.64C149.359 28.6 149.959 29.47 150.529 30.58C154.219 29.14 156.019 27.94 157.519 25.96C158.419 24.76 158.989 23.44 159.379 21.64H163.249V27.46C163.249 29.56 164.209 30.07 168.289 30.07C174.049 30.07 174.589 29.62 175.249 24.55C174.049 24.37 173.179 24.07 172.009 23.5C171.919 25.15 171.739 26.14 171.469 26.5C171.139 26.92 170.419 27.07 168.769 27.07C167.749 27.07 167.239 27.04 166.849 26.92C166.399 26.8 166.369 26.74 166.369 26.11V21.64H171.139C172.489 21.64 173.359 21.7 174.289 21.82V18.61C173.389 18.76 172.609 18.79 171.139 18.79H166.369V15.55C167.809 15.55 168.349 15.58 169.249 15.67V14.38C170.869 15.46 171.739 15.94 174.199 17.08C175.009 15.34 175.189 15.01 175.879 14.11C173.689 13.27 172.699 12.79 171.079 11.83C172.129 10.9 172.999 10.03 173.779 9.07002C174.379 8.41002 174.439 8.32002 174.619 8.14002L171.859 6.58002C171.139 7.75002 170.029 9.04002 168.739 10.21C168.109 9.73002 167.779 9.46002 166.969 8.77002C167.719 8.08002 168.649 7.15002 169.189 6.52002C169.879 5.71002 170.269 5.26002 170.359 5.14002L167.599 3.61002C167.509 3.76002 167.509 3.76002 167.359 4.00002C167.239 4.24002 167.149 4.33002 166.729 4.87002C166.129 5.65002 165.919 5.83002 164.959 6.79002C163.819 5.41002 163.399 4.72002 163.099 3.52002C162.409 3.61002 161.929 3.64002 160.519 3.64002H154.969C153.919 3.64002 153.049 3.58002 152.479 3.49002V6.61002C151.999 6.22002 151.999 6.22002 151.519 5.83002L149.059 7.66002C150.559 8.71002 151.579 9.64002 153.259 11.59C151.249 12.91 149.839 13.63 147.529 14.5C148.339 15.46 148.789 16.18 149.299 17.26C151.699 16.18 152.809 15.55 154.579 14.35V15.67C155.329 15.61 155.659 15.58 156.589 15.55L156.559 17.86ZM159.769 15.55H163.249V18.79H159.739C159.739 18.49 159.739 18.37 159.739 18.1L159.769 15.55ZM158.689 6.49002C157.789 7.72002 157.009 8.56002 155.749 9.70002C154.759 8.59002 154.069 7.93002 152.479 6.61002C153.109 6.52002 153.769 6.49002 154.309 6.49002H158.689ZM157.549 12.73C157.219 12.73 157.069 12.73 156.739 12.73C158.869 10.99 160.129 9.64002 161.809 7.30002C163.459 9.61002 164.779 10.99 166.909 12.73C166.669 12.73 166.669 12.73 166.279 12.73H157.549Z" fill="#FFA800"/>
<path fill-rule="evenodd" clip-rule="evenodd" d="M124.369 14.74C124.669 14.7845 124.968 14.8166 125.299 14.8394C125.854 14.8777 126.496 14.8898 127.369 14.89C127.379 14.89 127.389 14.89 127.399 14.89H136.099C136.139 14.89 136.179 14.89 136.219 14.89C137.08 14.889 137.71 14.8765 138.259 14.8397C138.598 14.8168 138.906 14.7847 139.219 14.74V17.44C139.179 17.4356 139.139 17.4313 139.099 17.4272C138.831 17.3994 138.559 17.378 138.259 17.3619C137.79 17.3367 137.251 17.3245 136.549 17.3211C136.452 17.3206 136.352 17.3203 136.249 17.3201C136.239 17.3201 136.229 17.3201 136.219 17.3201C136.179 17.3201 136.139 17.32 136.099 17.32V20.08H136.549C136.579 20.08 136.609 20.08 136.639 20.08C137.302 20.0795 137.817 20.0727 138.259 20.0569C138.5 20.0482 138.721 20.0369 138.932 20.0225C138.988 20.0186 139.044 20.0145 139.099 20.0102C139.28 19.9961 139.457 19.9795 139.639 19.96V22.72C139.455 22.6955 139.277 22.6748 139.099 22.6572C138.829 22.6308 138.557 22.6117 138.259 22.5983C137.808 22.5781 137.296 22.5707 136.639 22.5701C136.609 22.5701 136.579 22.57 136.549 22.57H136.099V27.01C136.099 27.1064 136.099 27.1985 136.099 27.2868C136.102 28.1742 136.122 28.6675 136.18 29.1203C136.199 29.2671 136.221 29.4097 136.249 29.56H133.099C133.124 29.4088 133.145 29.2655 133.163 29.1212C133.229 28.5839 133.248 28.0334 133.249 27.01C133.249 27.0001 133.249 26.9901 133.249 26.98V22.57H129.889C129.874 22.7092 129.859 22.8461 129.842 22.9808C129.838 23.01 129.834 23.0391 129.83 23.068C129.589 24.9031 129.097 26.3337 128.211 27.6782C127.985 28.0218 127.733 28.3597 127.453 28.6972C127.101 29.1218 126.704 29.5459 126.259 29.98C126.232 29.9511 126.205 29.9226 126.179 29.8945C126.007 29.7113 125.843 29.5438 125.68 29.3858C125.575 29.2837 125.47 29.1856 125.364 29.0898C124.927 28.6948 124.468 28.3398 123.859 27.91C124.379 27.5063 124.821 27.1166 125.196 26.7187C125.208 26.7058 125.22 26.6929 125.232 26.68C125.255 26.656 125.277 26.632 125.299 26.6079C125.556 26.3253 125.78 26.0375 125.976 25.7366C126.01 25.6836 126.044 25.6302 126.076 25.5763C126.513 24.8582 126.797 24.0603 126.983 23.08C126.992 23.0337 127 22.9869 127.009 22.9397C127.03 22.8193 127.05 22.6961 127.069 22.57C127.049 22.57 127.029 22.57 127.009 22.5701C126.968 22.5701 126.928 22.5701 126.889 22.5702C126.882 22.5702 126.876 22.5702 126.87 22.5702C126.24 22.5714 125.733 22.5782 125.299 22.5953C124.792 22.6152 124.384 22.649 123.999 22.7038C123.962 22.709 123.925 22.7144 123.889 22.72V19.96C124.145 19.9875 124.392 20.0093 124.656 20.0264C124.857 20.0395 125.068 20.0498 125.299 20.0578C125.733 20.0727 126.239 20.0793 126.889 20.08C126.928 20.08 126.968 20.08 127.009 20.08H127.309C127.311 20.0395 127.313 20.0001 127.315 19.9616C127.323 19.8242 127.33 19.6992 127.335 19.5819C127.362 19.0122 127.368 18.6252 127.369 17.89C127.369 17.7532 127.369 17.6044 127.369 17.44C127.369 17.401 127.369 17.3611 127.369 17.3202C127.349 17.3202 127.329 17.32 127.309 17.3201C127.258 17.3201 127.208 17.3202 127.159 17.3203C127.108 17.3204 127.058 17.3206 127.009 17.3208C126.318 17.3238 125.778 17.3364 125.299 17.3631C124.969 17.3815 124.669 17.4067 124.369 17.44C124.369 17.401 124.369 17.361 124.369 17.32V14.74ZM130.159 17.89C130.157 18.5733 130.151 18.8214 130.12 19.57C130.114 19.7181 130.107 19.8857 130.099 20.08H133.249V17.32H130.159C130.159 17.5425 130.159 17.7285 130.159 17.89ZM122.299 13.48H127.879C128.453 13.48 128.992 13.489 129.49 13.507C129.544 13.5089 129.597 13.511 129.649 13.5131C130.001 13.5274 130.332 13.5464 130.639 13.57C130.635 13.5229 130.632 13.4765 130.628 13.4307C130.592 12.9429 130.568 12.5172 130.557 11.89C130.556 11.842 130.555 11.7928 130.554 11.7423C130.552 11.5685 130.55 11.3794 130.549 11.17C130.549 11.0744 130.549 10.9746 130.549 10.87V6.25004C130.549 6.10684 130.549 5.967 130.55 5.83004C130.552 5.64121 130.555 5.45788 130.558 5.27884C130.57 4.68561 130.594 4.13958 130.63 3.59722C130.633 3.55148 130.636 3.50576 130.639 3.46004C130.302 3.49745 129.986 3.52449 129.62 3.54332C129.598 3.54443 129.577 3.54551 129.555 3.54656C129.062 3.57021 128.473 3.5797 127.625 3.58003C127.619 3.58003 127.614 3.58004 127.609 3.58004C127.599 3.58004 127.589 3.58004 127.579 3.58004H122.119C122.096 3.58004 122.073 3.58003 122.05 3.58002C121.352 3.57956 120.811 3.57203 120.344 3.55405C119.858 3.53532 119.451 3.50525 119.029 3.46004C119.112 4.34907 119.144 5.13519 119.148 6.48554C119.149 6.59333 119.149 6.70472 119.149 6.82004V26.62C119.149 26.8758 119.148 27.1152 119.145 27.34C119.131 28.7501 119.072 29.5897 118.969 30.34H122.479C122.461 30.2094 122.444 30.0753 122.429 29.9359C122.355 29.2687 122.313 28.4776 122.302 27.34C122.3 27.1321 122.299 26.9125 122.299 26.68V13.48ZM127.609 9.55004H122.299V11.17H127.609V9.55004ZM122.299 7.42004V5.83004H127.609V7.42004H122.299ZM124.589 32.4724C124.029 33.0262 123.272 33.34 122.479 33.34H118.969C118.102 33.34 117.277 32.9648 116.707 32.3111C116.137 31.6574 115.878 30.7891 115.997 29.9301C116.09 29.257 116.149 28.4226 116.149 26.62V6.82004C116.149 5.30412 116.119 4.56816 116.042 3.74006C115.958 2.84373 116.281 1.95705 116.922 1.3247C117.562 0.692359 118.453 0.381206 119.348 0.477112C120.032 0.550351 120.689 0.580041 122.119 0.580041H127.579C129.098 0.580041 129.66 0.550315 130.307 0.478388C130.759 0.428219 131.21 0.481709 131.629 0.628096C132.044 0.482996 132.491 0.429145 132.938 0.477112C133.626 0.550741 134.195 0.580041 135.679 0.580041H141.409C142.867 0.580041 143.495 0.550445 144.179 0.477112C145.068 0.381909 145.952 0.687804 146.593 1.3115C147.233 1.9352 147.561 2.81176 147.489 3.70249C147.446 4.23399 147.418 4.662 147.401 5.15446L149.479 3.60855V3.49004C149.479 2.61266 149.863 1.77926 150.53 1.20929C151.197 0.639316 152.08 0.389912 152.947 0.526751C153.305 0.583383 154.005 0.64004 154.969 0.64004H160.519C161.87 0.64004 162.205 0.611235 162.711 0.545239C163.751 0.409523 164.748 0.825771 165.388 1.58096C166.307 0.578708 167.82 0.302329 169.053 0.986226L171.813 2.51623C172.358 2.81839 172.79 3.27944 173.057 3.82971C173.151 3.87072 173.244 3.9169 173.335 3.96835L176.095 5.52835C176.911 5.98965 177.465 6.80595 177.591 7.73486C177.718 8.66376 177.403 9.59845 176.74 10.2614L176.738 10.2639C176.723 10.2785 176.713 10.2882 176.606 10.4099L176.591 10.4267C176.489 10.5428 176.341 10.7102 176.101 10.9755C176.361 11.08 176.643 11.1902 176.953 11.309C177.837 11.6479 178.509 12.384 178.766 13.2947C179.023 14.2055 178.835 15.1843 178.26 15.9353C177.954 16.3346 177.831 16.5158 177.697 16.7531C177.571 16.9778 177.424 17.2706 177.176 17.7959C177.25 18.0581 177.289 18.3319 177.289 18.61V21.82C177.289 21.9864 177.275 22.1512 177.248 22.3129C177.961 22.9513 178.356 23.9188 178.224 24.9373C178.06 26.1932 177.877 27.4077 177.559 28.4375C177.224 29.5215 176.659 30.6755 175.55 31.5585C174.479 32.4108 173.24 32.7368 172.128 32.8918C171.026 33.0454 169.72 33.07 168.289 33.07C167.226 33.07 166.261 33.038 165.418 32.9356C164.599 32.8361 163.689 32.6482 162.855 32.2142C161.926 31.7311 161.176 30.9866 160.725 29.9805C160.321 29.079 160.249 28.1656 160.249 27.46V27.2992C160.143 27.4541 160.033 27.6076 159.919 27.76L159.91 27.7716C157.936 30.3769 155.557 31.8381 151.619 33.3748C150.186 33.934 148.563 33.3188 147.86 31.9505C147.5 31.2492 147.153 30.7154 146.651 30.1553C146.355 30.7101 145.94 31.2368 145.361 31.6912C143.81 32.9087 141.737 33.01 140.119 33.01C139.54 33.01 139.056 33.0093 137.987 32.9445C137.5 32.915 137.043 32.7693 136.644 32.5339C136.514 32.5512 136.382 32.56 136.249 32.56H133.099C132.217 32.56 131.38 32.172 130.81 31.4992C130.472 31.1002 130.248 30.6251 130.152 30.123C129.62 30.8197 129.018 31.48 128.352 32.1291C127.773 32.6929 126.991 32.9994 126.184 32.9791C125.61 32.9647 125.058 32.7865 124.589 32.4724ZM139.216 29.9999C139.558 30.01 139.82 30.01 140.119 30.01C143.479 30.01 144.379 29.32 144.379 26.65V6.79004C144.379 6.68489 144.379 6.58358 144.379 6.48569C144.383 5.18718 144.415 4.49223 144.499 3.46004C144.082 3.50469 143.687 3.53457 143.212 3.55335C142.745 3.57182 142.2 3.57954 141.48 3.58002C141.457 3.58003 141.433 3.58004 141.409 3.58004H135.679C135.663 3.58004 135.648 3.58004 135.633 3.58003C134.805 3.5797 134.226 3.5703 133.733 3.54692C133.701 3.5454 133.669 3.54382 133.638 3.54219C133.278 3.52341 132.961 3.4967 132.619 3.46004C132.622 3.506 132.625 3.55171 132.628 3.59723C132.667 4.1955 132.692 4.76186 132.703 5.44687C132.705 5.57044 132.706 5.69787 132.707 5.83004C132.708 5.9648 132.709 6.10448 132.709 6.25004V10.87C132.709 10.975 132.709 11.075 132.709 11.17C132.709 11.322 132.709 11.4619 132.708 11.5924C132.708 11.6974 132.708 11.7961 132.707 11.89C132.704 12.4882 132.693 12.888 132.659 13.4146C132.656 13.4652 132.652 13.5169 132.649 13.57C132.942 13.5456 133.275 13.5261 133.638 13.5116C133.69 13.5096 133.743 13.5076 133.796 13.5057C134.283 13.4886 134.818 13.48 135.379 13.48H141.259V26.23C141.259 26.751 141.147 26.9355 140.627 26.9901C140.489 27.0047 140.321 27.01 140.119 27.01C139.818 27.01 139.475 26.9943 139.099 26.965C138.575 26.9243 137.987 26.8573 137.359 26.77C137.393 26.8524 137.425 26.9323 137.455 27.01C137.775 27.8211 137.931 28.4025 138.064 29.23C138.097 29.4332 138.129 29.6512 138.161 29.8911C138.163 29.9106 138.166 29.9302 138.169 29.95C138.611 29.9769 138.94 29.9917 139.216 29.9999ZM141.259 5.83004H135.679V7.42004H141.259V5.83004ZM135.679 9.55004V11.17H141.259V9.55004H135.679ZM147.379 24.8187C147.448 24.7936 147.519 24.7709 147.591 24.7508C147.742 24.7086 147.887 24.667 148.027 24.6261C147.799 24.5398 147.581 24.4256 147.379 24.285V24.8187ZM156.031 21.79C155.638 22.982 155.111 23.8408 154.302 24.64C154.19 24.7509 154.072 24.8607 153.949 24.97C153.229 25.624 152.474 26.1265 151.485 26.5747C150.658 26.9489 149.668 27.2851 148.399 27.64C149.246 28.4876 149.813 29.265 150.327 30.1993C150.395 30.3233 150.462 30.45 150.529 30.58C154.219 29.14 156.019 27.94 157.519 25.96C158.398 24.788 158.962 23.5016 159.351 21.7652C159.36 21.7238 159.37 21.682 159.379 21.64H163.249V27.46C163.249 29.56 164.209 30.07 168.289 30.07C168.373 30.07 168.455 30.0699 168.537 30.0697C168.615 30.0695 168.692 30.0693 168.769 30.0688C168.993 30.0677 169.208 30.0655 169.415 30.0621C172.887 30.0054 174.076 29.6007 174.708 27.5022C174.814 27.1499 174.904 26.7498 174.987 26.2957C175.074 25.8158 175.153 25.2756 175.233 24.6674C175.239 24.6286 175.244 24.5895 175.249 24.55C175.146 24.5346 175.046 24.5183 174.947 24.5011C174.603 24.4406 174.283 24.3681 173.971 24.2796C173.333 24.0985 172.728 23.8502 172.009 23.5C171.985 23.9269 171.956 24.3095 171.921 24.6485C171.82 25.6201 171.669 26.2332 171.469 26.5C171.458 26.5139 171.447 26.5274 171.435 26.5407C171.135 26.8791 170.547 27.0293 169.349 27.0627C169.17 27.0677 168.977 27.07 168.769 27.07C168.7 27.07 168.634 27.0699 168.57 27.0696C167.681 27.0656 167.213 27.032 166.849 26.92C166.399 26.8 166.369 26.74 166.369 26.11V21.64H171.139C171.189 21.64 171.239 21.6401 171.289 21.6403C171.906 21.6424 172.422 21.6577 172.892 21.6863C173.087 21.6981 173.273 21.7122 173.456 21.7285C173.738 21.7536 174.011 21.7841 174.289 21.82V18.61C174.008 18.6569 173.739 18.692 173.456 18.7182C173.451 18.7187 173.445 18.7192 173.439 18.7198C172.853 18.7733 172.209 18.7885 171.289 18.7899C171.24 18.79 171.19 18.79 171.139 18.79H166.369V15.55C166.564 15.55 166.743 15.5506 166.909 15.5518C167.289 15.5545 167.598 15.5605 167.874 15.5707C168.073 15.5781 168.256 15.5877 168.436 15.5998C168.698 15.6175 168.954 15.6405 169.249 15.67V14.38C169.287 14.4057 169.325 14.431 169.363 14.4559C169.365 14.4574 169.367 14.459 169.37 14.4605C170.097 14.9428 170.678 15.3053 171.34 15.67C171.394 15.6998 171.449 15.7296 171.504 15.7595C171.523 15.7693 171.541 15.7791 171.559 15.789C171.765 15.8998 171.981 16.0121 172.213 16.1292C172.657 16.3529 173.158 16.5939 173.76 16.876C173.845 16.9155 173.931 16.9558 174.02 16.997C174.079 17.0243 174.138 17.052 174.199 17.08C174.255 16.9596 174.308 16.846 174.358 16.7384C174.567 16.2924 174.731 15.9512 174.876 15.6681C175.202 15.0327 175.435 14.6895 175.879 14.11C175.096 13.81 174.467 13.5558 173.908 13.3093C173.602 13.1747 173.317 13.0423 173.04 12.906C172.461 12.622 171.914 12.3207 171.275 11.9458C171.211 11.908 171.145 11.8694 171.079 11.83C171.618 11.3528 172.109 10.8913 172.565 10.4254C172.817 10.168 173.059 9.90919 173.291 9.64562C173.458 9.45664 173.62 9.2652 173.779 9.07004C173.814 9.03141 173.847 8.99473 173.879 8.95987C174.105 8.71025 174.243 8.554 174.341 8.44249C174.463 8.30352 174.525 8.23406 174.619 8.14004L171.859 6.58004C171.756 6.74673 171.646 6.91585 171.528 7.08672C171.505 7.11954 171.482 7.15244 171.459 7.18539C171.28 7.44004 171.085 7.69824 170.876 7.95772C170.875 7.95948 170.874 7.96124 170.872 7.963C170.391 8.56018 169.837 9.16403 169.234 9.74685C169.072 9.90293 168.907 10.0575 168.739 10.21C168.697 10.178 168.656 10.1468 168.616 10.1165C168.097 9.71851 167.768 9.44915 167.105 8.8862C167.061 8.84881 167.016 8.81014 166.969 8.77004C167.051 8.69463 167.135 8.61635 167.22 8.53591C167.584 8.19367 167.974 7.8123 168.331 7.44609C168.597 7.17388 168.845 6.91004 169.052 6.67688C169.055 6.67293 169.059 6.669 169.062 6.66508C169.071 6.65497 169.08 6.64493 169.089 6.63495C169.123 6.59567 169.157 6.55733 169.189 6.52004C169.386 6.28884 169.558 6.08697 169.706 5.91373C169.714 5.90494 169.721 5.89622 169.729 5.88758C169.865 5.72747 169.981 5.59227 170.075 5.48214C170.225 5.30505 170.32 5.19182 170.359 5.14004L167.599 3.61004C167.509 3.75988 167.509 3.76004 167.359 3.99927C167.338 4.04159 167.317 4.08002 167.296 4.11631C167.227 4.23337 167.148 4.33613 166.991 4.5351C166.981 4.54829 166.97 4.56191 166.959 4.57597C166.954 4.58245 166.949 4.58902 166.944 4.59568C166.942 4.59804 166.94 4.60041 166.938 4.6028C166.879 4.67793 166.81 4.76556 166.729 4.87004C166.211 5.54333 165.984 5.76956 165.314 6.4363C165.241 6.50863 165.163 6.58613 165.079 6.66995C165.072 6.67724 165.064 6.68458 165.057 6.69197C165.025 6.72374 164.992 6.75641 164.959 6.79004C164.92 6.74304 164.882 6.69684 164.845 6.65139C164.544 6.28373 164.296 5.96535 164.089 5.67115C163.899 5.4008 163.743 5.15086 163.611 4.90187C163.491 4.67349 163.391 4.4459 163.304 4.20407C163.227 3.9906 163.16 3.76604 163.099 3.52004C162.409 3.61004 161.929 3.64004 160.519 3.64004H154.969C154.74 3.64004 154.519 3.63719 154.309 3.63179C154.031 3.62467 153.77 3.61312 153.529 3.59785C153.465 3.59384 153.403 3.58956 153.343 3.58504C153.188 3.57348 153.042 3.56032 152.907 3.54578C152.75 3.52894 152.607 3.51024 152.479 3.49004V6.61004L151.519 5.83004L149.059 7.66004C149.272 7.8091 149.475 7.95573 149.672 8.10321C149.998 8.34759 150.307 8.59429 150.612 8.85814C150.62 8.86486 150.628 8.87159 150.636 8.87833C150.815 9.03379 150.994 9.19529 151.175 9.36583C151.264 9.44982 151.353 9.536 151.444 9.62474C151.544 9.72296 151.645 9.82432 151.748 9.92929C152.206 10.3968 152.695 10.9361 153.259 11.59C152.303 12.2178 151.483 12.7099 150.637 13.1469C150.555 13.1892 150.473 13.2309 150.39 13.2722C149.533 13.7019 148.634 14.0838 147.529 14.5C147.887 14.9242 148.174 15.3015 148.428 15.6837C148.714 16.1145 148.956 16.5515 149.207 17.0689C149.238 17.1314 149.268 17.1951 149.299 17.26C149.302 17.2588 149.304 17.2575 149.307 17.2563C150.058 16.9182 150.683 16.6241 151.241 16.3428C151.37 16.2779 151.495 16.2138 151.617 16.1499C151.747 16.0823 151.873 16.0152 151.997 15.9478C152.078 15.9035 152.159 15.8592 152.239 15.8146C152.253 15.8064 152.268 15.7982 152.283 15.79C152.354 15.7502 152.424 15.7103 152.494 15.67C153.096 15.3245 153.671 14.9599 154.33 14.5181C154.379 14.4851 154.428 14.4517 154.479 14.4178C154.512 14.3954 154.545 14.3728 154.579 14.35V15.67L154.735 15.6575C154.998 15.6364 155.211 15.6193 155.429 15.6045C155.55 15.5963 155.673 15.5889 155.807 15.5819C156.025 15.5705 156.272 15.5603 156.589 15.55L156.559 17.86C156.559 18.1166 156.559 18.3007 156.545 18.5532C156.542 18.5921 156.54 18.6326 156.537 18.6752C156.535 18.7118 156.532 18.75 156.529 18.79H152.239C152.188 18.79 152.138 18.79 152.089 18.7899C151.171 18.7885 150.541 18.7733 149.956 18.7201C149.924 18.7173 149.893 18.7143 149.861 18.7112C149.605 18.6858 149.354 18.6528 149.089 18.61V21.82C149.357 21.7795 149.609 21.7477 149.862 21.7229C150.51 21.6594 151.163 21.6418 152.089 21.6402C152.138 21.6401 152.188 21.64 152.239 21.64H156.079C156.063 21.6906 156.047 21.7406 156.031 21.79ZM159.739 18.79H163.249V15.55H159.769L159.739 18.1V18.79ZM166.909 12.73C166.873 12.701 166.838 12.672 166.803 12.6431C166.765 12.6122 166.728 12.5813 166.69 12.5506C166.55 12.4343 166.413 12.3194 166.279 12.2055C165.309 11.3816 164.507 10.6124 163.737 9.7459C163.621 9.61556 163.506 9.48303 163.391 9.34776C163.186 9.1061 162.981 8.85573 162.775 8.59374C162.46 8.19323 162.141 7.76552 161.809 7.30004C161.768 7.35707 161.727 7.41351 161.687 7.46938C161.526 7.69175 161.368 7.9051 161.213 8.11073C161.176 8.15975 161.14 8.20835 161.103 8.25652C160.689 8.8009 160.29 9.29127 159.884 9.75226C159.22 10.508 158.536 11.1849 157.731 11.8913C157.671 11.9442 157.61 11.9972 157.549 12.0504C157.461 12.1261 157.372 12.2022 157.282 12.2788C157.18 12.3649 157.076 12.4516 156.971 12.5393C156.958 12.5495 156.946 12.5597 156.934 12.5699C156.869 12.6229 156.805 12.6763 156.739 12.73H166.909ZM152.899 6.55888C152.793 6.56967 152.688 6.58192 152.583 6.59578C152.548 6.60036 152.513 6.60511 152.479 6.61004C153.011 7.05163 153.442 7.41935 153.817 7.75477C153.992 7.91057 154.154 8.05941 154.309 8.20544C154.693 8.56827 155.031 8.91378 155.392 9.30587C155.448 9.36608 155.503 9.4274 155.56 9.49004C155.612 9.54763 155.665 9.60635 155.719 9.66636C155.729 9.67754 155.739 9.68877 155.749 9.70004C155.827 9.62893 155.904 9.55899 155.979 9.49004C156.728 8.80144 157.306 8.21258 157.856 7.5566C158.098 7.26871 158.335 6.96789 158.578 6.64004C158.615 6.59067 158.652 6.54069 158.689 6.49004H154.309C153.888 6.49004 153.394 6.50826 152.899 6.55888ZM147.379 11.3387C147.735 11.1941 148.068 11.0515 148.387 10.9058C148.066 10.6429 147.739 10.3994 147.379 10.1461V11.3387Z" fill="white"/>
</svg>
